<svg width="1920" height="1080" viewBox="0 0 1920 1080" xmlns="http://www.w3.org/2000/svg"><rect width="1920" height="1080" fill="#edede9"/><path d="M 0,1080 C 0,1080 0,180 0,180 C 104.97435897435895,177.84358974358975 209.9487179487179,175.6871794871795 312,159 C 414.0512820512821,142.3128205128205 513.1794871794872,111.0948717948718 614,128 C 714.8205128205128,144.9051282051282 817.3333333333335,209.93333333333334 934,207 C 1050.6666666666665,204.06666666666666 1181.4871794871792,133.17179487179487 1279,113 C 1376.5128205128208,92.82820512820514 1440.7179487179487,123.3794871794872 1542,143 C 1643.2820512820513,162.6205128205128 1781.6410256410256,171.3102564102564 1920,180 C 1920,180 1920,1080 1920,1080 Z" fill="#d6ccc2" opacity="0.09999999999999999"/><path d="M 0,1080 C 0,1080 0,360 0,360 C 95.61794871794874,347.5692307692308 191.23589743589747,335.1384615384615 290,332 C 388.76410256410253,328.8615384615385 490.67435897435894,335.01538461538456 617,349 C 743.3256410256411,362.98461538461544 894.0666666666668,384.80000000000007 1017,396 C 1139.9333333333332,407.19999999999993 1235.0589743589744,407.7846153846154 1338,408 C 1440.9410256410256,408.2153846153846 1551.697435897436,408.0615384615385 1650,400 C 1748.302564102564,391.9384615384615 1834.1512820512821,375.96923076923076 1920,360 C 1920,360 1920,1080 1920,1080 Z" fill="#d6ccc2" opacity="0.19999999999999998"/><path d="M 0,1080 C 0,1080 0,540 0,540 C 92.67948717948715,557.6282051282051 185.3589743589743,575.2564102564103 291,564 C 396.6410256410257,552.7435897435897 515.2435897435897,512.602564102564 638,491 C 760.7564102564103,469.39743589743597 887.6666666666667,466.33333333333337 981,493 C 1074.3333333333333,519.6666666666666 1134.0897435897434,576.0641025641027 1242,597 C 1349.9102564102566,617.9358974358973 1505.9743589743591,603.4102564102564 1627,588 C 1748.0256410256409,572.5897435897436 1834.0128205128203,556.2948717948718 1920,540 C 1920,540 1920,1080 1920,1080 Z" fill="#d6ccc2" opacity="0.3"/><path d="M 0,1080 C 0,1080 0,720 0,720 C 90.05897435897435,702.3589743589744 180.1179487179487,684.7179487179486 280,676 C 379.8820512820513,667.2820512820514 489.58717948717947,667.4871794871794 607,667 C 724.4128205128205,666.5128205128206 849.5333333333335,665.3333333333334 979,677 C 1108.4666666666665,688.6666666666666 1242.279487179487,713.1794871794872 1339,729 C 1435.720512820513,744.8205128205128 1495.348717948718,751.948717948718 1586,749 C 1676.651282051282,746.051282051282 1798.3256410256408,733.025641025641 1920,720 C 1920,720 1920,1080 1920,1080 Z" fill="#d6ccc2" opacity="0.39999999999999997"/><path d="M 0,1080 C 0,1080 0,900 0,900 C 120.82820512820513,869.6666666666666 241.65641025641025,839.3333333333333 336,832 C 430.34358974358975,824.6666666666667 498.2025641025641,840.3333333333334 613,860 C 727.7974358974359,879.6666666666666 889.5333333333331,903.3333333333335 997,901 C 1104.466666666667,898.6666666666665 1157.6641025641027,870.3333333333333 1253,868 C 1348.3358974358973,865.6666666666667 1485.8102564102562,889.3333333333334 1604,899 C 1722.1897435897438,908.6666666666666 1821.0948717948718,904.3333333333333 1920,900 C 1920,900 1920,1080 1920,1080 Z" fill="#d6ccc2" opacity="0.49999999999999994"/></svg>